# xmcd
#
# Track frame offsets:
#	150
#	12007
#	24673
#	36887
#	47857
#	58893
#	70388
#	81441
#	92538
#	105913
#	119472
#	130958
#
# Disc length: 1925 seconds
#
# Revision: 1
# Processed by: cddbd v1.5.1PL0 Copyright (c) Steve Scherf et al.
# Submitted via: audiograbber 1.83.01
#
DISCID=9f07830c
DTITLE=Glen Campbell - Too Late Too Worry To Blue To Cry
DYEAR=1900
DGENRE=Country
TTITLE0=Walking The Floor Over You
TTITLE1=I'll Hold You In My Heart
TTITLE2=Be Honest With Me
TTITLE3=Oh My Darlin
TTITLE4=Tomorrow Never Comes
TTITLE5=Too Late Too Worry To Blue To Cry
TTITLE6=Here I Am
TTITLE7=I Hang My Head And Cry
TTITLE8=When You Cry, You Cry Alone
TTITLE9=How Do I Tell My Heart Not To Break
TTITLE10=It's Been So Long Darlin
TTITLE11=The Long Black Limousine
EXTD=
EXTT0=
EXTT1=
EXTT2=
EXTT3=
EXTT4=
EXTT5=
EXTT6=
EXTT7=
EXTT8=
EXTT9=
EXTT10=
EXTT11=
PLAYORDER=
